<svg width="32" height="32" viewBox="0 0 32 32" fill="none" xmlns="http://www.w3.org/2000/svg">
<g clip-path="url(#clip0_onedrive)">
<path d="M18.9004 19.0656L24.6486 13.5685C23.4546 8.9127 18.7125 6.1065 14.0567 7.30058C11.9601 7.83823 10.1392 9.13786 8.94922 10.9458C9.03809 10.9436 18.9004 19.0656 18.9004 19.0656Z" fill="#0364B8"/>
<path d="M12.6951 11.9808L12.6949 11.9818C11.5964 11.3016 10.3297 10.9421 9.03777 10.9437C9.00797 10.9437 8.9786 10.9456 8.94879 10.9459C5.10592 10.9936 2.02918 14.1475 2.07672 17.9905C2.09398 19.3845 2.52953 20.7411 3.32693 21.8846L11.9385 20.8061L18.5408 15.4824L12.6951 11.9808Z" fill="#0078D4"/>
<path d="M24.6484 13.5686C24.5213 13.5596 24.3939 13.5549 24.2665 13.5543C23.4954 13.5535 22.7324 13.711 22.0246 14.0171L22.0244 14.0165L18.541 15.4823L22.3812 20.2259L29.2463 21.8947C30.7279 19.1444 29.6992 15.7138 26.9488 14.2322C26.2382 13.8494 25.4538 13.6231 24.6484 13.5686Z" fill="#1490DF"/>
<path d="M3.32617 21.8845C3.9668 22.8056 4.82082 23.5579 5.81531 24.0772C6.80979 24.5966 7.9152 24.8675 9.03713 24.867H24.2657C25.2867 24.8672 26.2888 24.591 27.1655 24.0677C28.0423 23.5444 28.761 22.7936 29.2454 21.8948L18.54 15.4822L3.32617 21.8845Z" fill="#28A8EA"/>
</g>
<defs>
<clipPath id="clip0_onedrive">
<rect width="28" height="17.9487" fill="white" transform="translate(2 7.02563)"/>
</clipPath>
</defs>
</svg>
