<svg width="69" height="24" viewBox="0 0 69 24" fill="none" xmlns="http://www.w3.org/2000/svg">
<g clip-path="url(#clip0_5172_25622)">
<mask id="mask0_5172_25622" style="mask-type:luminance" maskUnits="userSpaceOnUse" x="0" y="0" width="69" height="24">
<path d="M68.99 0H0V23.99H68.99V0Z" fill="white"/>
</mask>
<g mask="url(#mask0_5172_25622)">
<path d="M8.74 18.3C8.65 18.6 8.39 18.83 8.07 18.9C6.9 19.15 5.75 19.36 4.62 19.52C3.49 19.68 2.8 19.75 2.78 19.75C2.45 19.77 2.15 19.63 1.97 19.38C1.79 19.13 1.74 18.78 1.88 18.51C1.9 18.48 2.2 17.77 2.75 16.65C3.35 15.45 4.36 13.57 5.7 11.5C6.32 10.51 6.97 9.57 7.63 8.68C7.8 8.47 7.96 8.24 8.12 8.03C8.42 7.64 8.97 7.57 9.36 7.85C9.75 8.15 9.82 8.7 9.55 9.09C9.38 9.3 9.25 9.5 9.09 9.71C8.44 10.58 7.82 11.5 7.22 12.44C5.93 14.46 5.22 15.77 4.62 16.94L2.43 18.05C4.07 17.84 6.58 17.38 7.7 17.15C8.19 17.06 8.65 17.36 8.76 17.84C8.81 18 8.79 18.16 8.74 18.3Z" fill="black"/>
<path d="M5.12 10.7C4.82 10.7 4.52 10.54 4.34 10.26C3.74 9.23 3.19 8.19 2.68 7.18C2.15 6.15 1.9 5.53 1.88 5.51C1.76 5.21 1.78 4.89 1.97 4.63C2.15 4.38 2.45 4.24 2.77 4.27C2.8 4.27 3.56 4.33 4.82 4.52C6.16 4.73 8.25 5.09 10.65 5.71C11.78 6.01 12.88 6.33 13.94 6.65C14.2 6.75 14.45 6.82 14.7 6.91C15.16 7.07 15.42 7.57 15.26 8.03C15.09 8.49 14.59 8.74 14.13 8.58C13.9 8.49 13.64 8.42 13.39 8.33C12.38 8.01 11.29 7.69 10.21 7.41C7.89 6.82 6.41 6.54 5.12 6.36L3.4 4.63C4.09 6.1 5.31 8.35 5.88 9.34C6.14 9.76 5.97 10.31 5.56 10.56C5.42 10.67 5.28 10.7 5.12 10.7Z" fill="black"/>
<path d="M18.68 8.9C18.94 8.71 19.26 8.67 19.56 8.81C20.66 9.29 21.72 9.79 22.74 10.3C23.77 10.83 24.35 11.17 24.37 11.17C24.65 11.33 24.81 11.61 24.81 11.93C24.81 12.25 24.65 12.53 24.37 12.69C24.35 12.71 23.7 13.1 22.55 13.68C21.35 14.3 19.44 15.24 17.14 16.16C16.06 16.59 14.97 16.98 13.91 17.33C13.66 17.42 13.41 17.49 13.15 17.58C12.69 17.72 12.19 17.47 12.05 17.01C11.91 16.55 12.16 16.04 12.63 15.9C12.88 15.83 13.11 15.74 13.36 15.67C14.38 15.33 15.43 14.96 16.47 14.55C18.7 13.65 20.04 13.01 21.22 12.41L23.63 12.78C22.18 12 19.88 10.92 18.82 10.44C18.38 10.23 18.18 9.73 18.36 9.27C18.45 9.11 18.54 8.99 18.68 8.9Z" fill="black"/>
<path d="M8.69 20.09L8.99 21.08L8.39 22.11L10.28 20.6C10.47 20.46 10.72 20.48 10.86 20.66C10.97 20.8 10.97 21.01 10.86 21.17L9.2 23.35C8.97 23.65 8.53 23.72 8.21 23.49C8.02 23.35 7.93 23.17 7.93 22.96L7.84 20.21C7.84 19.98 8.02 19.77 8.25 19.77C8.46 19.75 8.65 19.88 8.69 20.09Z" fill="black"/>
<path d="M11.25 4.91C11.16 4.61 11.21 4.29 11.44 4.04C12.24 3.14 13.05 2.29 13.85 1.49C14.66 0.68 15.17 0.25 15.19 0.22C15.42 0.02 15.74 -0.05 16.04 0.04C16.34 0.13 16.57 0.38 16.64 0.68C16.64 0.71 16.82 1.46 17.03 2.7C17.26 4.04 17.56 6.13 17.7 8.61C17.77 9.76 17.82 10.9 17.82 12.03C17.82 12.3 17.82 12.56 17.82 12.83C17.82 13.32 17.4 13.71 16.92 13.71C16.43 13.71 16.04 13.29 16.04 12.81C16.04 12.56 16.04 12.3 16.04 12.03C16.04 10.95 16 9.85 15.93 8.72C15.77 6.33 15.58 4.86 15.35 3.58L16.46 1.39C15.28 2.5 13.53 4.36 12.75 5.21C12.43 5.58 11.87 5.62 11.5 5.28C11.39 5.18 11.3 5.05 11.25 4.91Z" fill="black"/>
<path d="M17.17 17.2C17.42 17.38 17.56 17.68 17.54 18C17.42 19.19 17.28 20.37 17.1 21.47C16.91 22.59 16.78 23.26 16.78 23.28C16.71 23.58 16.48 23.83 16.2 23.95C15.9 24.04 15.58 23.97 15.35 23.79C15.32 23.77 14.75 23.26 13.83 22.39C12.86 21.45 11.39 19.93 9.8 18.02C9.06 17.13 8.35 16.23 7.68 15.34C7.52 15.13 7.36 14.9 7.22 14.69C6.94 14.3 7.03 13.75 7.43 13.45C7.82 13.18 8.37 13.27 8.67 13.66C8.81 13.87 8.97 14.07 9.13 14.28C9.77 15.15 10.44 16.03 11.18 16.87C12.72 18.71 13.76 19.79 14.68 20.69L15.07 23.1C15.37 21.49 15.69 18.97 15.81 17.82C15.85 17.33 16.29 16.97 16.78 17.01C16.89 17.06 17.05 17.1 17.17 17.2Z" fill="black"/>
<path d="M3.42 11.2L2.57 11.8L1.39 11.55L3.42 12.86C3.6 12.97 3.65 13.22 3.53 13.43C3.44 13.59 3.24 13.66 3.05 13.59L0.47 12.69C0.1 12.56 -0.08 12.17 0.03 11.8C0.1 11.59 0.26 11.43 0.45 11.36L3.03 10.42C3.26 10.33 3.51 10.47 3.58 10.67C3.67 10.88 3.58 11.09 3.42 11.2Z" fill="black"/>
<path d="M10.26 3.44L9.43 2.82L9.29 1.62L8.67 3.97C8.62 4.17 8.39 4.31 8.16 4.27C7.98 4.22 7.86 4.06 7.86 3.88L7.91 1.12C7.91 0.73 8.23 0.43 8.62 0.43C8.85 0.43 9.04 0.55 9.15 0.71L10.83 2.86C10.97 3.05 10.95 3.32 10.77 3.46C10.63 3.58 10.4 3.58 10.26 3.44Z" fill="black"/>
<path d="M19.77 7.53L20.12 6.56L21.22 6.06L18.8 6.17C18.57 6.2 18.39 6.01 18.37 5.78C18.37 5.6 18.48 5.41 18.64 5.37L21.27 4.59C21.64 4.47 22.03 4.68 22.14 5.05C22.21 5.25 22.17 5.46 22.05 5.64L20.51 7.92C20.37 8.12 20.12 8.17 19.91 8.03C19.75 7.92 19.7 7.71 19.77 7.53Z" fill="black"/>
<path d="M18.83 17.79L19.86 17.82L20.67 18.69L19.79 16.46C19.7 16.25 19.82 16.03 20.02 15.93C20.21 15.86 20.39 15.93 20.51 16.07L22.1 18.32C22.33 18.64 22.23 19.08 21.91 19.29C21.73 19.42 21.52 19.45 21.31 19.38L18.66 18.62C18.43 18.55 18.3 18.32 18.37 18.09C18.43 17.91 18.62 17.79 18.83 17.79Z" fill="black"/>
<path d="M30.85 18.05H31.15V18.16C31.24 18.09 31.4 18 31.56 18C31.98 18 32.23 18.25 32.23 18.76C32.23 19.42 31.84 19.63 31.45 19.63C31.33 19.63 31.24 19.61 31.17 19.61V20.23H30.85V18.05ZM31.91 18.83C31.91 18.51 31.82 18.28 31.47 18.28C31.33 18.28 31.17 18.37 31.12 18.39V19.38C31.19 19.38 31.26 19.4 31.42 19.4C31.75 19.4 31.91 19.15 31.91 18.83Z" fill="white"/>
<path d="M32.48 19.19C32.48 18.8 32.83 18.71 33.11 18.71H33.45V18.53C33.45 18.32 33.34 18.28 33.08 18.28C32.94 18.28 32.76 18.32 32.67 18.34L32.6 18.11C32.69 18.07 32.9 18.02 33.15 18.02C33.54 18.02 33.75 18.14 33.75 18.46V19.29C33.75 19.38 33.82 19.4 33.89 19.4L33.87 19.63C33.84 19.63 33.82 19.63 33.8 19.63C33.66 19.63 33.47 19.58 33.45 19.45C33.36 19.52 33.2 19.65 32.94 19.65C32.67 19.65 32.48 19.49 32.48 19.19ZM33.45 19.26V18.9L33.11 18.92C32.9 18.92 32.76 19.03 32.76 19.17C32.76 19.36 32.85 19.4 33.01 19.4C33.2 19.4 33.41 19.29 33.45 19.26Z" fill="white"/>
<path d="M34.12 19.52L34.21 19.29C34.32 19.33 34.49 19.4 34.65 19.4C34.81 19.4 34.95 19.33 34.95 19.15C34.95 18.97 34.79 18.92 34.6 18.92H34.42V18.69H34.6C34.81 18.69 34.88 18.57 34.88 18.46C34.88 18.35 34.79 18.25 34.62 18.25C34.46 18.25 34.35 18.3 34.26 18.35L34.19 18.12C34.32 18.05 34.51 18 34.69 18C35.06 18 35.2 18.21 35.2 18.41C35.2 18.6 35.08 18.74 34.95 18.78C35.08 18.8 35.27 18.92 35.27 19.17C35.27 19.4 35.11 19.63 34.67 19.63C34.49 19.65 34.28 19.61 34.12 19.52Z" fill="white"/>
<path d="M35.66 18.05H35.96V18.16C36.05 18.09 36.21 18 36.37 18C36.79 18 37.02 18.25 37.02 18.76C37.02 19.42 36.63 19.63 36.21 19.63C36.1 19.63 36.01 19.61 35.94 19.61V20.23H35.64V18.05H35.66ZM36.74 18.83C36.74 18.51 36.65 18.28 36.3 18.28C36.17 18.28 36.01 18.37 35.96 18.39V19.38C36.03 19.38 36.1 19.4 36.26 19.4C36.58 19.4 36.74 19.15 36.74 18.83Z" fill="white"/>
<path d="M37.3 19.19C37.3 18.8 37.64 18.71 37.92 18.71H38.26V18.53C38.26 18.32 38.15 18.28 37.9 18.28C37.73 18.28 37.57 18.32 37.48 18.34L37.41 18.11C37.5 18.07 37.71 18.02 37.96 18.02C38.36 18.02 38.56 18.14 38.56 18.46V19.29C38.56 19.38 38.63 19.4 38.7 19.4L38.68 19.63C38.66 19.63 38.63 19.63 38.61 19.63C38.47 19.63 38.29 19.58 38.26 19.45C38.17 19.52 38.01 19.65 37.73 19.65C37.48 19.65 37.3 19.49 37.3 19.19ZM38.29 19.26V18.9L37.94 18.92C37.71 18.92 37.6 19.03 37.6 19.17C37.6 19.36 37.69 19.4 37.85 19.4C38.01 19.4 38.22 19.29 38.29 19.26Z" fill="white"/>
<path d="M39.05 18.74C39.05 18.41 39.12 17.91 39.3 17.75C39.46 17.61 39.88 17.5 40.38 17.4L40.43 17.68C39.99 17.75 39.6 17.82 39.51 17.91C39.42 18 39.39 18.16 39.37 18.32C39.51 18.25 39.69 18.18 39.9 18.18C40.27 18.18 40.52 18.37 40.52 18.85C40.52 19.4 40.2 19.65 39.76 19.65C39.3 19.65 39.05 19.38 39.05 18.74ZM40.2 18.85C40.2 18.6 40.08 18.41 39.81 18.41C39.62 18.41 39.48 18.48 39.35 18.55C39.35 18.6 39.35 18.67 39.35 18.74C39.35 19.19 39.48 19.42 39.78 19.42C40.11 19.4 40.2 19.13 40.2 18.85Z" fill="white"/>
<path d="M40.8 18.85C40.8 18.32 41.12 18 41.56 18C42.06 18 42.29 18.3 42.29 18.83C42.29 19.38 41.97 19.65 41.53 19.65C41.05 19.65 40.8 19.36 40.8 18.85ZM41.97 18.83C41.97 18.55 41.88 18.25 41.53 18.25C41.19 18.25 41.1 18.55 41.1 18.85C41.1 19.17 41.21 19.42 41.53 19.42C41.88 19.4 41.97 19.13 41.97 18.83Z" fill="white"/>
<path d="M42.96 18.3H42.43V18.05H43.79V18.3H43.26V19.61H42.96V18.3Z" fill="white"/>
<path d="M44.09 18.05H44.39V19.61H44.09V18.05ZM44.83 19.36L44.39 18.83L45.01 18.07H45.36L44.73 18.8L45.03 19.15C45.17 19.31 45.29 19.4 45.43 19.42L45.38 19.65C45.22 19.63 45.06 19.61 44.83 19.36Z" fill="white"/>
<path d="M45.59 19.19C45.59 18.8 45.93 18.71 46.21 18.71H46.55V18.53C46.55 18.32 46.44 18.28 46.18 18.28C46.02 18.28 45.86 18.32 45.77 18.34L45.7 18.11C45.79 18.07 46 18.02 46.25 18.02C46.65 18.02 46.85 18.14 46.85 18.46V19.29C46.85 19.38 46.92 19.4 46.99 19.4L46.97 19.63C46.94 19.63 46.92 19.63 46.9 19.63C46.76 19.63 46.58 19.58 46.55 19.45C46.46 19.52 46.3 19.65 46.02 19.65C45.77 19.65 45.59 19.49 45.59 19.19ZM46.55 19.26V18.9L46.21 18.92C46 18.92 45.86 19.03 45.86 19.17C45.86 19.36 45.98 19.4 46.12 19.4C46.3 19.4 46.51 19.29 46.55 19.26Z" fill="white"/>
<path d="M48.05 18.05H49.36V19.61H49.06V18.28H48.35V19.61H48.05V18.05Z" fill="white"/>
<path d="M49.85 18.05H50.15V18.16C50.24 18.09 50.4 18 50.56 18C50.98 18 51.21 18.25 51.21 18.76C51.21 19.42 50.82 19.63 50.42 19.63C50.31 19.63 50.22 19.61 50.15 19.61V20.23H49.85V18.05ZM50.93 18.83C50.93 18.51 50.84 18.28 50.49 18.28C50.35 18.28 50.19 18.37 50.15 18.39V19.38C50.22 19.38 50.29 19.4 50.45 19.4C50.77 19.4 50.93 19.15 50.93 18.83Z" fill="white"/>
<path d="M51.53 18.85C51.53 18.32 51.85 18 52.29 18C52.79 18 53.02 18.3 53.02 18.83C53.02 19.38 52.7 19.65 52.26 19.65C51.8 19.65 51.53 19.36 51.53 18.85ZM52.7 18.83C52.7 18.55 52.61 18.25 52.26 18.25C51.92 18.25 51.83 18.55 51.83 18.85C51.83 19.17 51.94 19.42 52.26 19.42C52.61 19.4 52.7 19.13 52.7 18.83Z" fill="white"/>
<path d="M53.39 18.05H54.43V18.3H53.69V19.61H53.39V18.05Z" fill="white"/>
<path d="M54.78 18.05H55.08V18.16C55.17 18.09 55.33 18 55.49 18C55.91 18 56.14 18.25 56.14 18.76C56.14 19.42 55.74 19.63 55.35 19.63C55.24 19.63 55.15 19.61 55.08 19.61V20.23H54.78V18.05ZM55.86 18.83C55.86 18.51 55.77 18.28 55.42 18.28C55.28 18.28 55.12 18.37 55.08 18.39V19.38C55.15 19.38 55.21 19.4 55.38 19.4C55.7 19.4 55.86 19.15 55.86 18.83Z" fill="white"/>
<path d="M56.43 19.19C56.43 18.8 56.78 18.71 57.06 18.71H57.4V18.53C57.4 18.32 57.29 18.28 57.03 18.28C56.89 18.28 56.71 18.32 56.62 18.34L56.55 18.11C56.64 18.07 56.85 18.02 57.08 18.02C57.47 18.02 57.68 18.14 57.68 18.46V19.29C57.68 19.38 57.75 19.4 57.82 19.4L57.79 19.63C57.77 19.63 57.75 19.63 57.72 19.63C57.59 19.63 57.4 19.58 57.38 19.45C57.29 19.52 57.12 19.65 56.85 19.65C56.59 19.65 56.43 19.49 56.43 19.19ZM57.4 19.26V18.9L57.06 18.92C56.85 18.92 56.71 19.03 56.71 19.17C56.71 19.36 56.83 19.4 56.96 19.4C57.15 19.4 57.33 19.29 57.4 19.26Z" fill="white"/>
<path d="M58.25 18.05H58.65L59.11 19.38L59.61 18.05H59.98V19.61H59.7V18.74L59.73 18.44L59.27 19.61H58.92L58.51 18.44L58.53 18.74V19.61H58.25V18.05Z" fill="white"/>
<path d="M60.49 18.05H60.88L61.34 19.38L61.85 18.05H62.24V19.61H61.94V18.74L61.96 18.44L61.52 19.61H61.16L60.76 18.44V18.74V19.61H60.49V18.05Z" fill="white"/>
<path d="M62.72 18.05H63.02V18.71H63.78V18.05H64.08V19.61H63.78V18.94H63.02V19.61H62.72V18.05Z" fill="white"/>
<path d="M64.47 18.85C64.47 18.32 64.8 18 65.23 18C65.74 18 65.97 18.3 65.97 18.83C65.97 19.38 65.65 19.65 65.21 19.65C64.73 19.65 64.47 19.36 64.47 18.85ZM65.65 18.83C65.65 18.55 65.56 18.25 65.21 18.25C64.86 18.25 64.77 18.55 64.77 18.85C64.77 19.17 64.89 19.42 65.21 19.42C65.56 19.4 65.65 19.13 65.65 18.83Z" fill="white"/>
<path d="M66.34 18.05H67.37V18.3H66.64V19.61H66.34V18.05Z" fill="white"/>
<path d="M67.49 18.85C67.49 18.32 67.81 18 68.25 18C68.75 18 68.99 18.3 68.99 18.83C68.99 19.38 68.66 19.65 68.23 19.65C67.76 19.65 67.49 19.36 67.49 18.85ZM68.69 18.83C68.69 18.55 68.59 18.25 68.25 18.25C67.9 18.25 67.81 18.55 67.81 18.85C67.81 19.17 67.93 19.42 68.25 19.42C68.59 19.4 68.69 19.13 68.69 18.83Z" fill="white"/>
<path d="M30.73 22.3C30.73 21.77 31.03 21.45 31.49 21.45C32 21.45 32.23 21.74 32.23 22.27C32.23 22.82 31.91 23.1 31.47 23.1C31.01 23.1 30.73 22.8 30.73 22.3ZM31.93 22.3C31.93 22.02 31.84 21.72 31.49 21.72C31.15 21.72 31.06 22.02 31.06 22.32C31.06 22.62 31.17 22.89 31.49 22.89C31.84 22.87 31.93 22.59 31.93 22.3Z" fill="white"/>
<path d="M32.53 22.2C32.53 21.88 32.6 21.38 32.76 21.22C32.92 21.05 33.33 20.96 33.84 20.87L33.89 21.15C33.45 21.22 33.06 21.28 32.96 21.38C32.87 21.47 32.85 21.65 32.83 21.79C32.96 21.72 33.15 21.65 33.36 21.65C33.72 21.65 33.98 21.84 33.98 22.32C33.98 22.87 33.66 23.12 33.22 23.12C32.8 23.1 32.53 22.82 32.53 22.2ZM33.68 22.3C33.68 22.04 33.56 21.86 33.29 21.86C33.1 21.86 32.96 21.93 32.83 22C32.83 22.04 32.83 22.13 32.83 22.18C32.83 22.64 32.96 22.87 33.26 22.87C33.59 22.85 33.68 22.57 33.68 22.3Z" fill="white"/>
<path d="M34.28 22.32C34.28 21.68 34.6 21.47 35.01 21.47C35.43 21.47 35.61 21.74 35.61 22.27V22.39H34.58C34.58 22.82 34.81 22.89 35.13 22.89C35.24 22.89 35.43 22.85 35.54 22.82L35.59 23.05C35.5 23.08 35.31 23.12 35.06 23.12C34.58 23.1 34.28 22.92 34.28 22.32ZM35.29 22.16C35.29 21.88 35.2 21.7 34.97 21.7C34.76 21.7 34.6 21.86 34.58 22.16H35.29Z" fill="white"/>
<path d="M35.89 22.27C35.89 21.77 36.19 21.45 36.67 21.45C36.9 21.45 37.02 21.49 37.13 21.54L37.04 21.77C36.95 21.72 36.86 21.7 36.67 21.7C36.4 21.7 36.21 21.88 36.21 22.27C36.21 22.66 36.33 22.85 36.77 22.85C36.9 22.85 37 22.82 37.09 22.8L37.13 23.03C37.04 23.05 36.93 23.08 36.77 23.08C36.14 23.1 35.89 22.85 35.89 22.27Z" fill="white"/>
<path d="M37.46 21.49H38.77V23.08H38.47V21.74H37.76V23.08H37.46V21.49Z" fill="white"/>
<path d="M39.16 22.32C39.16 21.68 39.48 21.47 39.9 21.47C40.31 21.47 40.5 21.74 40.5 22.27V22.39H39.46C39.46 22.82 39.69 22.89 40.01 22.89C40.13 22.89 40.31 22.85 40.43 22.82L40.47 23.05C40.38 23.08 40.2 23.12 39.94 23.12C39.46 23.1 39.16 22.92 39.16 22.32ZM40.2 22.16C40.2 21.88 40.1 21.7 39.87 21.7C39.67 21.7 39.51 21.86 39.48 22.16H40.2Z" fill="white"/>
<path d="M41.76 22.41C41.63 22.46 41.49 22.5 41.3 22.5C40.91 22.5 40.8 22.32 40.8 22V21.51H41.1V21.97C41.1 22.16 41.14 22.25 41.4 22.25C41.53 22.25 41.65 22.2 41.76 22.18V21.51H42.06V23.08H41.76V22.41Z" fill="white"/>
<path d="M42.46 22.32C42.46 21.68 42.78 21.47 43.19 21.47C43.61 21.47 43.79 21.74 43.79 22.27V22.39H42.76C42.76 22.82 42.99 22.89 43.31 22.89C43.42 22.89 43.61 22.85 43.72 22.82L43.77 23.05C43.68 23.08 43.49 23.12 43.24 23.12C42.76 23.1 42.46 22.92 42.46 22.32ZM43.47 22.16C43.47 21.88 43.38 21.7 43.15 21.7C42.94 21.7 42.78 21.86 42.76 22.16H43.47Z" fill="white"/>
<path d="M44.16 21.49H44.46V22.16H45.22V21.49H45.52V23.08H45.22V22.41H44.46V23.08H44.16V21.49Z" fill="white"/>
<path d="M46 21.49H46.3V22.46V22.66L46.44 22.46L47.11 21.49H47.4V23.08H47.11V22.11V21.9L46.97 22.11L46.3 23.08H46V21.49Z" fill="white"/>
<path d="M47.77 22.85C47.93 22.82 48 22.78 48.1 22.62C48.1 22.62 48.19 22.46 48.21 22.46C48.03 22.39 47.91 22.23 47.91 22.02C47.91 21.68 48.17 21.49 48.51 21.49H49.09V23.05H48.79V22.52H48.6C48.58 22.52 48.51 22.52 48.51 22.52L48.33 22.8C48.14 23.05 47.98 23.08 47.82 23.08L47.77 22.85ZM48.79 22.32V21.74H48.53C48.33 21.74 48.21 21.86 48.21 22.04C48.21 22.25 48.37 22.32 48.56 22.32H48.79Z" fill="white"/>
<path d="M35.18 6.49C35.18 6.91 35.11 7.27 35 7.6C34.88 7.92 34.7 8.17 34.49 8.4C34.28 8.61 34 8.77 33.71 8.88C33.41 9 33.08 9.04 32.74 9.04C32.39 9.04 32.09 9 31.79 8.88C31.49 8.77 31.24 8.61 31.01 8.4C30.78 8.19 30.62 7.92 30.48 7.6C30.34 7.27 30.3 6.91 30.3 6.49C30.3 6.08 30.37 5.71 30.5 5.39C30.64 5.07 30.8 4.82 31.03 4.59C31.26 4.38 31.52 4.2 31.82 4.11C32.12 3.99 32.42 3.94 32.74 3.94C33.08 3.94 33.38 3.99 33.68 4.11C33.98 4.22 34.24 4.38 34.47 4.59C34.7 4.79 34.86 5.07 35 5.39C35.11 5.71 35.18 6.08 35.18 6.49ZM31.43 6.49C31.43 6.72 31.45 6.95 31.52 7.14C31.59 7.32 31.66 7.5 31.77 7.64C31.89 7.78 32.02 7.89 32.19 7.96C32.35 8.03 32.53 8.08 32.74 8.08C32.95 8.08 33.13 8.03 33.29 7.96C33.45 7.89 33.59 7.78 33.71 7.64C33.82 7.5 33.91 7.34 33.96 7.14C34.03 6.95 34.05 6.72 34.05 6.49C34.05 6.26 34.03 6.03 33.96 5.85C33.89 5.64 33.82 5.48 33.71 5.35C33.59 5.21 33.45 5.09 33.29 5.02C33.13 4.95 32.95 4.91 32.74 4.91C32.53 4.91 32.35 4.95 32.19 5.02C32.02 5.09 31.89 5.21 31.77 5.35C31.66 5.48 31.56 5.64 31.52 5.85C31.45 6.06 31.43 6.26 31.43 6.49Z" fill="black"/>
<path d="M39 6.1H37.8V8.95H36.74V6.1H35.57V5.23H39V6.1Z" fill="black"/>
<path d="M40.52 6.54C40.61 6.45 40.73 6.33 40.84 6.22C40.96 6.1 41.07 5.99 41.19 5.87C41.3 5.76 41.4 5.64 41.49 5.53C41.58 5.41 41.67 5.32 41.76 5.25H43.05C42.96 5.35 42.85 5.48 42.71 5.62C42.57 5.76 42.43 5.92 42.27 6.08C42.11 6.24 41.95 6.4 41.81 6.54C41.65 6.7 41.51 6.84 41.37 6.95C41.51 7.07 41.67 7.21 41.83 7.37C41.99 7.53 42.16 7.71 42.29 7.87C42.46 8.06 42.59 8.24 42.73 8.42C42.87 8.61 42.98 8.79 43.08 8.95H41.88C41.79 8.84 41.7 8.7 41.58 8.56C41.46 8.42 41.35 8.29 41.23 8.15C41.12 8.01 41 7.89 40.89 7.76C40.77 7.64 40.66 7.53 40.54 7.46V8.95H39.48V5.23H40.54V6.54H40.52Z" fill="black"/>
<path d="M46.95 7.09C46.95 7.39 46.9 7.64 46.83 7.87C46.76 8.1 46.65 8.31 46.51 8.47C46.37 8.63 46.21 8.77 46 8.86C45.79 8.95 45.56 9 45.31 9C45.17 9 45.03 8.97 44.9 8.95C44.76 8.93 44.64 8.88 44.53 8.84V10.24H43.47V5.37C43.56 5.35 43.68 5.32 43.79 5.28C43.91 5.25 44.04 5.23 44.18 5.21C44.32 5.18 44.46 5.16 44.6 5.16C44.74 5.14 44.87 5.14 44.99 5.14C45.29 5.14 45.56 5.18 45.82 5.28C46.05 5.37 46.26 5.51 46.42 5.67C46.58 5.83 46.72 6.03 46.79 6.29C46.9 6.54 46.95 6.79 46.95 7.09ZM45.86 7.14C45.86 6.82 45.79 6.54 45.66 6.36C45.52 6.15 45.29 6.06 45.01 6.06C44.92 6.06 44.83 6.06 44.76 6.08C44.67 6.08 44.62 6.1 44.55 6.1V8.01C44.62 8.06 44.71 8.08 44.8 8.12C44.92 8.15 45.01 8.17 45.13 8.17C45.61 8.12 45.86 7.8 45.86 7.14Z" fill="black"/>
<path d="M48.65 6.56C48.72 6.54 48.81 6.52 48.9 6.52C49.02 6.49 49.13 6.49 49.27 6.49C49.48 6.49 49.69 6.52 49.89 6.56C50.08 6.61 50.26 6.7 50.4 6.79C50.54 6.91 50.65 7.02 50.75 7.18C50.84 7.34 50.86 7.53 50.86 7.76C50.86 7.96 50.81 8.17 50.75 8.31C50.68 8.47 50.56 8.61 50.42 8.7C50.29 8.79 50.1 8.88 49.92 8.93C49.71 8.97 49.5 9 49.27 9C48.95 9 48.67 8.97 48.42 8.95C48.17 8.93 47.89 8.88 47.64 8.81V5.23H48.7V6.56H48.65ZM49.18 8.22C49.36 8.22 49.53 8.17 49.64 8.1C49.76 8.03 49.8 7.92 49.8 7.73C49.8 7.64 49.78 7.57 49.76 7.53C49.71 7.46 49.66 7.41 49.59 7.39C49.53 7.34 49.46 7.32 49.36 7.32C49.27 7.3 49.18 7.3 49.09 7.3C49.02 7.3 48.95 7.3 48.86 7.32C48.77 7.34 48.72 7.34 48.67 7.34V8.19C48.72 8.19 48.81 8.22 48.9 8.22C48.97 8.22 49.06 8.22 49.18 8.22ZM52.43 8.95H51.37V5.23H52.43V8.95Z" fill="black"/>
<path d="M56.34 6.1H55.14V8.95H54.08V6.1H52.91V5.23H56.34V6.1Z" fill="black"/>
<path d="M57.86 6.56C57.93 6.54 58.02 6.52 58.11 6.52C58.23 6.49 58.34 6.49 58.48 6.49C58.69 6.49 58.9 6.52 59.1 6.56C59.29 6.61 59.47 6.7 59.61 6.79C59.75 6.91 59.86 7.02 59.96 7.18C60.05 7.34 60.07 7.53 60.07 7.76C60.07 7.96 60.03 8.17 59.96 8.31C59.89 8.47 59.77 8.61 59.63 8.7C59.5 8.79 59.33 8.88 59.13 8.93C58.94 8.97 58.71 9 58.48 9C58.16 9 57.88 8.97 57.63 8.95C57.38 8.93 57.1 8.88 56.85 8.81V5.23H57.91V6.56H57.86ZM58.39 8.22C58.57 8.22 58.74 8.17 58.85 8.1C58.97 8.03 59.01 7.92 59.01 7.73C59.01 7.64 58.99 7.57 58.97 7.53C58.92 7.46 58.87 7.41 58.81 7.39C58.74 7.34 58.67 7.32 58.57 7.32C58.48 7.3 58.39 7.3 58.3 7.3C58.23 7.3 58.16 7.3 58.07 7.32C57.98 7.34 57.93 7.34 57.88 7.34V8.19C57.93 8.19 58.02 8.22 58.11 8.22C58.18 8.22 58.28 8.22 58.39 8.22ZM61.64 8.95H60.58V5.23H61.64V8.95Z" fill="black"/>
<path d="M62.29 7.14C62.29 6.82 62.33 6.52 62.45 6.26C62.54 6.01 62.68 5.8 62.84 5.64C63 5.48 63.18 5.35 63.41 5.28C63.62 5.18 63.85 5.14 64.08 5.14C64.61 5.14 65.03 5.3 65.33 5.62C65.62 5.94 65.79 6.42 65.79 7.04C65.79 7.11 65.79 7.18 65.79 7.25C65.79 7.32 65.79 7.39 65.76 7.44H63.37C63.39 7.64 63.51 7.83 63.67 7.96C63.85 8.1 64.08 8.15 64.38 8.15C64.57 8.15 64.77 8.12 64.96 8.1C65.14 8.08 65.3 8.03 65.42 7.96L65.56 8.81C65.51 8.84 65.42 8.86 65.33 8.91C65.23 8.93 65.12 8.95 65 8.97C64.89 9 64.77 9.02 64.63 9.02C64.5 9.04 64.38 9.04 64.24 9.04C63.9 9.04 63.62 9 63.37 8.91C63.11 8.81 62.91 8.68 62.75 8.49C62.58 8.31 62.47 8.12 62.38 7.87C62.33 7.64 62.29 7.39 62.29 7.14ZM64.77 6.72C64.77 6.63 64.75 6.54 64.73 6.47C64.7 6.38 64.66 6.31 64.61 6.24C64.57 6.17 64.5 6.13 64.4 6.08C64.31 6.03 64.22 6.01 64.1 6.01C63.99 6.01 63.87 6.03 63.81 6.08C63.71 6.13 63.64 6.17 63.6 6.24C63.53 6.31 63.51 6.38 63.46 6.47C63.44 6.56 63.41 6.65 63.39 6.75H64.77V6.72Z" fill="black"/>
<path d="M32.34 10.01C33.08 10.01 33.63 10.15 34.03 10.4C34.42 10.65 34.62 11.06 34.62 11.66C34.62 12.26 34.42 12.67 34.03 12.92C33.63 13.18 33.06 13.32 32.32 13.32H31.98V14.95H30.87V10.12C31.1 10.08 31.38 10.03 31.63 10.03C31.91 10.01 32.14 10.01 32.34 10.01ZM32.41 10.95C32.32 10.95 32.25 10.95 32.18 10.95C32.11 10.95 32.05 10.95 31.98 10.97V12.4H32.32C32.71 12.4 32.99 12.35 33.2 12.24C33.38 12.12 33.5 11.94 33.5 11.66C33.5 11.52 33.47 11.41 33.43 11.32C33.38 11.23 33.31 11.16 33.22 11.11C33.13 11.06 33.01 11.02 32.87 11C32.71 10.95 32.58 10.95 32.41 10.95Z" fill="black"/>
<path d="M34.95 13.13C34.95 12.81 35 12.51 35.11 12.26C35.2 12.01 35.34 11.8 35.5 11.64C35.66 11.48 35.85 11.34 36.08 11.27C36.28 11.18 36.52 11.13 36.75 11.13C37.28 11.13 37.69 11.29 37.99 11.62C38.29 11.94 38.45 12.42 38.45 13.04C38.45 13.11 38.45 13.18 38.45 13.25C38.45 13.31 38.45 13.38 38.43 13.43H36.03C36.05 13.64 36.15 13.82 36.33 13.94C36.52 14.07 36.75 14.12 37.04 14.12C37.23 14.12 37.44 14.1 37.62 14.07C37.8 14.03 37.97 14 38.08 13.94L38.22 14.78C38.15 14.81 38.08 14.83 37.99 14.88C37.9 14.9 37.78 14.92 37.67 14.95C37.55 14.97 37.44 14.99 37.3 14.99C37.16 15.01 37.04 15.01 36.91 15.01C36.56 15.01 36.28 14.97 36.03 14.88C35.78 14.78 35.57 14.65 35.41 14.46C35.25 14.28 35.13 14.1 35.04 13.84C35 13.66 34.95 13.41 34.95 13.13ZM37.44 12.72C37.44 12.63 37.41 12.53 37.39 12.47C37.37 12.37 37.32 12.3 37.28 12.24C37.23 12.17 37.16 12.12 37.07 12.07C36.98 12.03 36.88 12.01 36.77 12.01C36.65 12.01 36.56 12.03 36.47 12.07C36.38 12.12 36.31 12.17 36.26 12.24C36.19 12.3 36.17 12.37 36.12 12.47C36.1 12.56 36.08 12.65 36.05 12.74H37.44V12.72Z" fill="black"/>
<path d="M39.12 14.95V11.25H40.18V14.1H41.14V11.25H42.2V14.1H43.17V11.25H44.21V14.95H39.12Z" fill="black"/>
<path d="M44.88 13.13C44.88 12.81 44.92 12.51 45.04 12.26C45.13 12.01 45.27 11.8 45.43 11.64C45.59 11.48 45.77 11.34 46 11.27C46.21 11.18 46.44 11.13 46.67 11.13C47.2 11.13 47.62 11.29 47.91 11.62C48.21 11.94 48.38 12.42 48.38 13.04C48.38 13.11 48.38 13.18 48.38 13.25C48.38 13.31 48.38 13.38 48.35 13.43H45.96C45.98 13.64 46.07 13.82 46.26 13.94C46.44 14.07 46.67 14.12 46.97 14.12C47.16 14.12 47.36 14.1 47.55 14.07C47.73 14.03 47.89 14 48.01 13.94L48.15 14.78C48.1 14.81 48.01 14.83 47.91 14.88C47.82 14.9 47.71 14.92 47.59 14.95C47.48 14.97 47.36 14.99 47.22 14.99C47.09 15.01 46.97 15.01 46.83 15.01C46.51 15.01 46.21 14.97 45.96 14.88C45.7 14.78 45.5 14.65 45.34 14.46C45.17 14.28 45.06 14.1 44.97 13.84C44.9 13.66 44.88 13.41 44.88 13.13ZM47.34 12.72C47.34 12.63 47.32 12.53 47.29 12.47C47.27 12.37 47.22 12.3 47.18 12.24C47.13 12.17 47.06 12.12 46.97 12.07C46.88 12.03 46.79 12.01 46.67 12.01C46.56 12.01 46.44 12.03 46.37 12.07C46.28 12.12 46.21 12.17 46.16 12.24C46.12 12.3 46.07 12.37 46.03 12.47C46 12.56 45.98 12.65 45.96 12.74H47.34V12.72Z" fill="black"/>
<path d="M52.24 14.95H51.18V13.48H50.08V14.95H49.04V11.25H50.08V12.63H51.18V11.25H52.24V14.95Z" fill="black"/>
<path d="M56.46 11.25V14.97H55.4C55.4 14.74 55.4 14.49 55.4 14.26C55.4 14.03 55.4 13.8 55.42 13.61C55.42 13.41 55.42 13.25 55.44 13.09C55.44 12.92 55.44 12.83 55.44 12.76C55.3 12.95 55.17 13.15 55.03 13.36C54.89 13.57 54.75 13.75 54.64 13.94C54.52 14.12 54.38 14.3 54.29 14.49C54.18 14.67 54.08 14.83 53.99 14.97H53.07V11.25H54.13C54.13 11.48 54.13 11.71 54.13 11.91C54.13 12.12 54.13 12.33 54.13 12.49C54.13 12.67 54.13 12.81 54.11 12.95C54.11 13.09 54.11 13.18 54.11 13.25C54.38 12.83 54.66 12.47 54.89 12.14C55.12 11.82 55.35 11.52 55.58 11.25H56.46Z" fill="black"/>
<path d="M58.83 13.64C58.67 13.87 58.55 14.07 58.42 14.3C58.3 14.53 58.19 14.74 58.07 14.95H56.99C57.13 14.65 57.26 14.35 57.4 14.1C57.54 13.84 57.68 13.61 57.82 13.43C57.61 13.31 57.47 13.2 57.33 13.04C57.22 12.88 57.15 12.67 57.15 12.42C57.15 12.01 57.29 11.68 57.59 11.45C57.89 11.22 58.3 11.13 58.83 11.13C58.95 11.13 59.08 11.13 59.22 11.16C59.36 11.16 59.5 11.18 59.66 11.2C59.8 11.22 59.94 11.25 60.07 11.27C60.21 11.29 60.3 11.32 60.4 11.34V14.95H59.34V13.61H58.83V13.64ZM59.38 12.01C59.34 12.01 59.27 11.98 59.15 11.98C59.06 11.98 58.97 11.96 58.9 11.96C58.65 11.96 58.46 12.01 58.37 12.1C58.28 12.19 58.23 12.3 58.23 12.44C58.23 12.53 58.25 12.6 58.28 12.65C58.32 12.72 58.37 12.76 58.42 12.79C58.49 12.83 58.55 12.86 58.62 12.86C58.69 12.88 58.78 12.88 58.85 12.88H59.36V12.01H59.38Z" fill="black"/>
<path d="M64.33 14.95H61.22V15.54H64.33V14.95Z" fill="black"/>
</g>
</g>
<defs>
<clipPath id="clip0_5172_25622">
<rect width="69" height="24" fill="white"/>
</clipPath>
</defs>
</svg>
